<mxfile host="app.diagrams.net" modified="2023-09-29T11:35:11.869Z" agent="Mozilla/5.0 (Windows NT 10.0; Win64; x64) AppleWebKit/537.36 (KHTML, like Gecko) Chrome/117.0.0.0 Safari/537.36" etag="9DqWIdyyvANaj2jj3Sjp" version="22.0.0" type="github">
  <diagram name="Page-1" id="gdQsAu9eXlNZS5ohJm73">
    <mxGraphModel dx="1050" dy="542" grid="1" gridSize="10" guides="1" tooltips="1" connect="1" arrows="1" fold="1" page="1" pageScale="1" pageWidth="850" pageHeight="1100" background="#ffffff" math="0" shadow="0">
      <root>
        <mxCell id="0" />
        <mxCell id="1" parent="0" />
        <mxCell id="eZlVqtUhdLY--JyXYQnB-3" value="" style="endArrow=none;html=1;rounded=0;fillColor=#dae8fc;strokeColor=#6c8ebf;strokeWidth=6;opacity=50;" edge="1" parent="1">
          <mxGeometry width="50" height="50" relative="1" as="geometry">
            <mxPoint x="71" y="320" as="sourcePoint" />
            <mxPoint x="311" y="320" as="targetPoint" />
          </mxGeometry>
        </mxCell>
        <mxCell id="eZlVqtUhdLY--JyXYQnB-19" value="&lt;font color=&quot;#003366&quot;&gt;&lt;b&gt;Palo &lt;br&gt;(Rozpocet)&lt;/b&gt;&lt;/font&gt;" style="edgeLabel;html=1;align=center;verticalAlign=middle;resizable=0;points=[];labelBackgroundColor=none;" vertex="1" connectable="0" parent="eZlVqtUhdLY--JyXYQnB-3">
          <mxGeometry x="-0.4517" relative="1" as="geometry">
            <mxPoint x="3" y="30" as="offset" />
          </mxGeometry>
        </mxCell>
        <mxCell id="eZlVqtUhdLY--JyXYQnB-4" value="" style="endArrow=none;html=1;rounded=0;fillColor=#f8cecc;strokeColor=#b85450;strokeWidth=6;opacity=50;" edge="1" parent="1">
          <mxGeometry width="50" height="50" relative="1" as="geometry">
            <mxPoint x="280" y="320" as="sourcePoint" />
            <mxPoint x="590" y="320" as="targetPoint" />
          </mxGeometry>
        </mxCell>
        <mxCell id="eZlVqtUhdLY--JyXYQnB-17" value="Erik (Fiskal)" style="edgeLabel;html=1;align=center;verticalAlign=middle;resizable=0;points=[];fontColor=#CC0000;fontStyle=1;labelBackgroundColor=none;" vertex="1" connectable="0" parent="eZlVqtUhdLY--JyXYQnB-4">
          <mxGeometry x="-0.2658" y="-1" relative="1" as="geometry">
            <mxPoint x="-4" y="19" as="offset" />
          </mxGeometry>
        </mxCell>
        <mxCell id="eZlVqtUhdLY--JyXYQnB-5" value="" style="endArrow=none;html=1;rounded=0;fillColor=#d5e8d4;strokeColor=#82b366;strokeWidth=6;opacity=50;fontStyle=1" edge="1" parent="1">
          <mxGeometry width="50" height="50" relative="1" as="geometry">
            <mxPoint x="551" y="320" as="sourcePoint" />
            <mxPoint x="791" y="320" as="targetPoint" />
          </mxGeometry>
        </mxCell>
        <mxCell id="eZlVqtUhdLY--JyXYQnB-18" value="Marek &lt;br&gt;(Udrzatelnost)" style="edgeLabel;html=1;align=center;verticalAlign=middle;resizable=0;points=[];fontStyle=1;fontColor=#006600;labelBackgroundColor=none;" vertex="1" connectable="0" parent="eZlVqtUhdLY--JyXYQnB-5">
          <mxGeometry x="0.49" y="-3" relative="1" as="geometry">
            <mxPoint y="27" as="offset" />
          </mxGeometry>
        </mxCell>
        <mxCell id="eZlVqtUhdLY--JyXYQnB-7" style="edgeStyle=orthogonalEdgeStyle;rounded=0;orthogonalLoop=1;jettySize=auto;html=1;fontColor=#878787;fillColor=#bac8d3;strokeColor=#23445d;" edge="1" parent="1" source="eZlVqtUhdLY--JyXYQnB-6">
          <mxGeometry relative="1" as="geometry">
            <mxPoint x="200" y="320" as="targetPoint" />
          </mxGeometry>
        </mxCell>
        <mxCell id="eZlVqtUhdLY--JyXYQnB-8" style="edgeStyle=orthogonalEdgeStyle;rounded=0;orthogonalLoop=1;jettySize=auto;html=1;fontColor=#878787;fillColor=#bac8d3;strokeColor=#23445d;" edge="1" parent="1" source="eZlVqtUhdLY--JyXYQnB-6">
          <mxGeometry relative="1" as="geometry">
            <mxPoint x="440" y="320" as="targetPoint" />
          </mxGeometry>
        </mxCell>
        <mxCell id="eZlVqtUhdLY--JyXYQnB-9" style="edgeStyle=orthogonalEdgeStyle;rounded=0;orthogonalLoop=1;jettySize=auto;html=1;fontColor=#878787;fillColor=#bac8d3;strokeColor=#23445d;" edge="1" parent="1" source="eZlVqtUhdLY--JyXYQnB-6">
          <mxGeometry relative="1" as="geometry">
            <mxPoint x="690" y="320" as="targetPoint" />
          </mxGeometry>
        </mxCell>
        <mxCell id="eZlVqtUhdLY--JyXYQnB-6" value="Sano&lt;br&gt;(Makro)" style="ellipse;whiteSpace=wrap;html=1;fillColor=#fad7ac;strokeColor=#b46504;fontColor=#663300;fontStyle=1" vertex="1" parent="1">
          <mxGeometry x="390" y="140" width="100" height="70" as="geometry" />
        </mxCell>
        <mxCell id="eZlVqtUhdLY--JyXYQnB-11" style="edgeStyle=orthogonalEdgeStyle;rounded=0;orthogonalLoop=1;jettySize=auto;html=1;fillColor=#bac8d3;strokeColor=#23445d;" edge="1" parent="1" source="eZlVqtUhdLY--JyXYQnB-10">
          <mxGeometry relative="1" as="geometry">
            <mxPoint x="690" y="320" as="targetPoint" />
          </mxGeometry>
        </mxCell>
        <mxCell id="eZlVqtUhdLY--JyXYQnB-12" style="edgeStyle=orthogonalEdgeStyle;rounded=0;orthogonalLoop=1;jettySize=auto;html=1;fillColor=#bac8d3;strokeColor=#23445d;" edge="1" parent="1" source="eZlVqtUhdLY--JyXYQnB-10">
          <mxGeometry relative="1" as="geometry">
            <mxPoint x="440" y="320" as="targetPoint" />
          </mxGeometry>
        </mxCell>
        <mxCell id="eZlVqtUhdLY--JyXYQnB-13" style="edgeStyle=orthogonalEdgeStyle;rounded=0;orthogonalLoop=1;jettySize=auto;html=1;fillColor=#bac8d3;strokeColor=#23445d;" edge="1" parent="1" source="eZlVqtUhdLY--JyXYQnB-10">
          <mxGeometry relative="1" as="geometry">
            <mxPoint x="200" y="320" as="targetPoint" />
          </mxGeometry>
        </mxCell>
        <mxCell id="eZlVqtUhdLY--JyXYQnB-10" value="Martin&amp;nbsp;&lt;br&gt;(Mikro)" style="ellipse;whiteSpace=wrap;html=1;fillColor=#b1ddf0;strokeColor=#10739e;fontColor=#009999;fontStyle=1" vertex="1" parent="1">
          <mxGeometry x="390" y="400" width="100" height="70" as="geometry" />
        </mxCell>
      </root>
    </mxGraphModel>
  </diagram>
</mxfile>
